<?xml version="1.0" encoding="utf-8"?>
<!-- Generator: Adobe Illustrator 16.0.0, SVG Export Plug-In . SVG Version: 6.00 Build 0)  -->
<!DOCTYPE svg PUBLIC "-//W3C//DTD SVG 1.1//EN" "http://www.w3.org/Graphics/SVG/1.1/DTD/svg11.dtd">
<svg version="1.1" id="Слой_1" xmlns="http://www.w3.org/2000/svg" xmlns:xlink="http://www.w3.org/1999/xlink" x="0px" y="0px"
	 width="1140px" height="600px" viewBox="0 0 1140 600" enable-background="new 0 0 1140 600" xml:space="preserve">
<path fill-rule="evenodd" clip-rule="evenodd" d="M290.917,156.229c-13.923,11.459-9.394,11.403-16.188,12.52l2.822-0.014
	c19.434-0.085,35.898,15.39,36.441,35.23c0.3,10.933,0.254,20.677,0.157,30.683h-0.125c-0.079,8.09-0.201,17.028-0.201,26.106
	c0,23.888-20.476,36.309-38.003,37.753c-7.826,0.638-12.601,18.133-14.597,24.807c-6.188,20.612-19.432,24.084-24.537,60.898
	c-5.101,36.837-12.026,60.383-72.371,60.383h-1.143l0,0h-1.663c-60.332,0.253-66.287-23.546-71.392-60.383
	c-5.108-36.814-18.352-40.286-24.537-60.898c-1.998-6.674-6.781-24.169-14.596-24.807c-17.521-1.444-38.003-13.865-38.003-37.753
	c0-20.688-0.601-36.626-0.057-56.467c0.537-19.851,17.016-35.32,36.456-35.233l26.406,0.105
	c-24.958-41.631,21.999-80.657,76.941-74.484c42.976,4.825,85.902,29.557,139.456,11.785
	c-10.183,15.685-34.599,25.035-50.497,26.752c26.078,14.018,16.869,16.428,43.621,18.336L290.917,156.229z"/>
<path fill="#689A9F" d="M680.609,365.694h5.968l0.122-33.327h-5.964L680.609,365.694L680.609,365.694z M722.572,356.03
	c-2.066-3.348-4.325-6.809-6.64-10.047l-9.656-13.616h-5.562l-0.127,33.327h5.961l0.099-23.86l0.241-0.113
	c1.767,3.176,3.771,5.978,5.684,8.686l10.785,15.288h5.369l0.137-33.327h-5.877l-0.083,23.628L722.572,356.03L722.572,356.03z
	 M769.418,359.977c-0.753-3.946-2.476-8.926-3.828-12.963l-4.83-14.646h-6.151l11.556,33.327h6.647l12.008-33.327h-6.123
	l-4.925,14.502c-1.402,3.991-2.894,8.221-4.045,13.107H769.418L769.418,359.977z M820.884,342.662
	c0.02-6.141-3.869-10.295-11.664-10.295h-13.507l-0.109,33.327h5.918l0.042-12.961h3.539l9.268,12.961h6.969l-9.657-13.169
	C818.443,351.589,820.861,346.573,820.884,342.662L820.884,342.662z M808.709,337.259c3.456,0,6.304,1.871,6.304,5.359
	c-0.014,4.048-3.219,5.279-6.321,5.279h-7.155l0.027-10.639H808.709L808.709,337.259z M878.659,358.739
	c-1.037-4.779-2.344-9.224-3.452-13.298l-3.653-13.074h-6.261l-3.441,12.323c-1.114,4.035-2.307,7.835-3.71,14.1h-0.228
	c-0.928-5.372-2.095-9.814-3.061-14.1l-2.916-12.323h-6.307l9.088,33.327h6.468l4.245-14.79c1.289-4.573,2.14-7.793,2.804-11.236
	h0.186c0.743,4.182,1.795,7.438,2.927,11.429l4.18,14.598h6.508l9.3-33.327h-6.372l-3.155,13.32
	c-0.932,3.939-1.909,8.182-2.897,13.052H878.659L878.659,358.739z M901.913,365.694h23.579v-4.94h-17.644l0.048-9.85h15.659
	l0.028-4.921h-15.688l0.047-8.725h17.199v-4.892h-23.12L901.913,365.694L901.913,365.694z M967.356,337.259h10.901v-4.892h-27.851
	l-0.03,4.892h11.062l-0.109,28.436h5.904L967.356,337.259L967.356,337.259z M1014.366,342.662
	c0.023-6.141-3.866-10.295-11.639-10.295H989.23l-0.137,33.327h5.905l0.046-12.961h3.563l9.273,12.961h6.944l-9.657-13.169
	C1011.929,351.589,1014.366,346.573,1014.366,342.662L1014.366,342.662z M1002.229,337.259c3.444,0,6.292,1.871,6.277,5.359
	c-0.032,4.048-3.226,5.279-6.325,5.279h-7.154l0.045-10.639H1002.229L1002.229,337.259z M1054.693,332.367h-5.875l-0.066,20.059
	c-0.023,6.364-3.376,8.886-7.819,8.886c-4.925,0-8.321-1.929-8.308-8.826l0.079-20.118h-5.964l-0.064,19.908
	c-0.048,8.649,3.441,13.811,14.19,13.811c10.073,0,13.732-5.569,13.758-13.758L1054.693,332.367L1054.693,332.367z M1081.188,332.02
	c-9.831,0-12.867,5.239-12.867,9.914c-0.016,6.714,5.736,8.18,12.238,8.971c5.576,0.685,7.735,2.217,7.735,5.479
	c-0.021,2.407-1.909,4.869-7.265,4.869c-5.32,0-7.984-2.604-8.059-6.404h-5.63c-0.092,0.494-0.16,0.981-0.16,1.535
	c-0.021,6.798,6.441,9.759,13.69,9.759c9.402,0,13.557-4.739,13.585-10.016c0.021-6.214-3.777-9.02-12.19-10.297
	c-5.082-0.795-7.933-1.284-7.933-4.396c0.02-2.358,1.999-4.385,6.57-4.385c4.303,0,6.654,2.322,6.739,5.432h5.733
	c0.045-0.409,0.093-0.943,0.093-1.481C1093.497,334.746,1087.099,332.02,1081.188,332.02L1081.188,332.02L1081.188,332.02z
	 M1121.651,337.259h10.899l0.018-4.892H1104.7l-0.034,4.892h11.066l-0.11,28.436h5.931L1121.651,337.259L1121.651,337.259z"/>
<path fill-rule="evenodd" clip-rule="evenodd" fill="#8EC4D4" d="M47.989,177.935h230.943c13.939,0,25.321,11.482,25.321,25.313
	v57.322c0,13.823-11.486,25.312-25.321,25.312H47.989c-13.826,0-25.318-11.395-25.318-25.312v-57.322
	C22.671,189.324,34.072,177.935,47.989,177.935L47.989,177.935z"/>
<path fill="#FFFFFF" d="M219.516,227.696h-35.448v-9.237h35.448C225.863,218.566,225.694,228.294,219.516,227.696L219.516,227.696z
	 M240.698,222.996c0-15.325-11.327-17.859-17.752-17.972h-56.789v13.435h-0.043v30.077v1.271v13.357h17.955v-13.357v-9.532h25.531
	l8.022,9.532l10.682,13.297l20.503,0.02l-20.662-24.526C240.96,237.471,240.698,222.996,240.698,222.996L240.698,222.996z"/>
<path fill="#FFFFFF" d="M160.939,205.552l-12.013,12.907l-18.283,20.731l-18.263-20.731l-12.518-13.435H78.125l12.43,13.435
	c3.571,3.924,40.042,44.131,40.088,44.074c0.041,0.038,18.347-20.118,30.296-33.284V205.552L160.939,205.552z"/>
<path fill-rule="evenodd" clip-rule="evenodd" fill="#FFFFFF" d="M145.563,337.016c6.883-5.069,12.576-7.031,17.724-7.031l0,0h0.264
	h0.102h0.259l0,0c5.145,0,10.847,1.962,17.722,7.031c24.418,18.012,20.08,36.462,12.253,37.948
	c-7.699,1.443-18.054,3.435-29.975,3.056v-0.026l-0.313,0.018l-0.313-0.018v0.026c-11.911,0.379-22.279-1.612-29.967-3.056
	C125.489,373.478,121.161,355.027,145.563,337.016L145.563,337.016z M163.817,292.904v-0.006h-0.218h-0.21v0.006l-0.33-0.006v0.02
	c-1.685,0.054-3.373,0.124-5.065,0.204c-17.185,2.759-20.222,20.688-37.705,22.4c-17.471,1.705-24.825,6.101-36.334,21.296
	c8.831,12.896,12.169,26.065,15.104,44.782c6.085,38.619,13.643,54.583,64.228,54.933l0,0h0.313h0.313l0,0
	c50.593-0.35,58.149-16.313,64.228-54.933c2.947-18.717,6.277-31.886,15.102-44.782c-11.511-15.195-18.847-19.591-36.334-21.296
	c-17.473-1.712-20.513-19.642-37.703-22.4c-1.684-0.08-3.375-0.15-5.062-0.204v-0.02L163.817,292.904L163.817,292.904z
	 M163.599,396.891l-0.128-0.011h-0.065c-1.84,0.051-5.209,2.243-9.309-0.388c-22.839-11.705,4.945-8.311,9.309-8.262h0.065h0.128
	h0.133h0.071c4.352-0.049,32.144-3.443,9.309,8.262c-4.107,2.631-7.476,0.438-9.309,0.388h-0.071L163.599,396.891L163.599,396.891z
	 M170.559,301.094c-6.351-0.494-1.686,9.207,0.486,10.395c1.646,0.907,3.19,1.23,6.419,1.408c3.198,0.327,3.984,0.645,6.095,0.553
	C188.541,313.244,176.912,301.581,170.559,301.094L170.559,301.094z M163.722,340.749h0.041h0.04v0.014h0.132
	c2.929,0.124,5.496-0.653,9.621,1.23c4.271,1.708,4.467,2.552,6.99,3.896c1.354,0.72,4.022,3.127,2.133,2.276
	c-1.733-0.806-4.364,0.91-5.174-1.158c-1.642,1.878-4.763,0.177-5.487-0.454c-0.584,1.431-0.092,2.241-4.789,2.046
	c-2.027-0.102-2.913-0.276-3.318-0.635v0.201c-0.125-0.06-0.224-0.131-0.313-0.182c-0.079,0.051-0.187,0.122-0.313,0.182v-0.201
	c-0.408,0.358-1.284,0.533-3.304,0.635c-4.714,0.195-4.2-0.615-4.804-2.046c-0.72,0.631-3.837,2.332-5.481,0.454
	c-0.81,2.068-3.431,0.353-5.174,1.158c-1.887,0.851,0.787-1.557,2.134-2.276c2.531-1.344,2.724-2.188,6.992-3.896
	c4.134-1.884,6.69-1.106,9.631-1.23h0.11v-0.014h0.058h0.032v0.014h0.118h0.123V340.749L163.722,340.749z M156.645,301.094
	c6.355-0.494,1.689,9.207-0.485,10.395c-1.644,0.907-3.188,1.23-6.422,1.408c-3.196,0.327-3.985,0.645-6.098,0.553
	C138.662,313.244,150.292,301.581,156.645,301.094L156.645,301.094z"/>
<path d="M406.149,256.292c0.014,9.407-0.462,16.146-1.405,20.209c-1.608,7.254-5.183,12.639-10.731,16.167
	c-4.366,2.823-9.67,4.257-15.863,4.257c-9.429,0-19.104-4.1-29.033-12.282l6.159-9.222c6.021,4.127,11.056,7.039,15.131,8.73
	c2.638,1.19,5.225,1.783,7.753,1.783c3.423,0,6.471-1.026,9.137-3.042c2.66-2.025,4.546-4.666,5.613-7.95
	c1.079-3.293,1.613-9.677,1.603-19.183l-0.083-77.802h11.649L406.149,256.292L406.149,256.292z M557.146,235.931
	c0.016,17.102-5.846,31.544-17.573,43.323c-11.764,11.773-26.165,17.671-43.279,17.671c-17.081,0-31.576-5.823-43.478-17.429
	c-11.886-11.653-17.859-25.95-17.873-43.005c-0.013-11.038,2.656-21.328,7.938-30.839c5.305-9.513,12.675-17.031,22.154-22.551
	c9.289-5.361,19.367-8.053,30.192-8.053c17.461,0,32.124,5.763,43.953,17.268C551.132,204.01,557.132,218.519,557.146,235.931
	L557.146,235.931z M545.185,235.977c-0.024-19.096-8.17-33.367-24.452-42.755c-7.819-4.468-16.116-6.7-24.9-6.7
	c-8.702,0-16.888,2.232-24.537,6.7c-7.672,4.451-13.652,10.461-17.955,18.031c-4.299,7.572-6.448,15.997-6.432,25.297
	c0.004,13.687,4.708,25.297,14.093,34.815c9.378,9.501,21.007,14.24,34.821,14.24c9.021,0,17.345-2.146,25-6.465
	c7.647-4.313,13.613-10.264,17.918-17.866C543.042,253.666,545.185,245.221,545.185,235.977L545.185,235.977z M663.586,247.997
	c0.005,9.888-0.762,17.577-2.354,23.053c-2.248,7.637-6.471,13.831-12.673,18.658c-6.147,4.823-13.563,7.218-22.21,7.218
	c-8.758,0-16.45-1.993-23.069-6.007c-7.165-4.372-12.005-10.521-14.491-18.46c-1.438-4.575-2.143-12.704-2.148-24.461l-0.069-70.04
	h11.48l0.064,69.989c0.017,8.036,0.175,13.198,0.497,15.515c1.226,9.051,5.843,15.424,13.825,19.163
	c4.412,2.093,8.839,3.146,13.272,3.146c8.25,0,14.934-3.076,19.988-9.21c2.386-2.915,4.137-6.392,5.239-10.493
	c0.787-2.949,1.177-8.993,1.167-18.122l-0.075-69.989h11.479L663.586,247.997L663.586,247.997z M775.986,294.017h-14.24
	l-42.074-53.984h-6.628l0.065,53.984h-11.478l-0.119-116.06h23.169c12.887,0,21.652,0.544,26.251,1.591
	c7.133,1.614,12.836,5.058,17.049,10.318c4.182,5.254,6.273,11.558,6.3,18.932c0,13.232-5.773,22.394-17.321,27.43
	c-5.543,2.474-13.243,3.739-23.066,3.805L775.986,294.017L775.986,294.017z M762.32,208.829c-0.022-3.824-1.035-7.298-3.111-10.483
	c-2.088-3.175-4.849-5.44-8.349-6.841c-3.518-1.375-9.265-2.073-17.292-2.073H713l0.037,39.279l20.113,0.158
	c13.324,0.104,21.996-2.989,26.059-9.262C761.285,216.393,762.32,212.819,762.32,208.829L762.32,208.829z M904.188,294.017h-2.736
	l-76.551-87.78l0.071,87.78h-11.938l-0.109-116.06h2.573l77.201,88.9l-0.099-88.9h11.478L904.188,294.017L904.188,294.017z
	 M1046.294,294.017h-12.473l-18.283-38.146h-50.07l-18.128,38.146h-12.92l54.674-116.06h2.918L1046.294,294.017L1046.294,294.017z
	 M1010.391,244.548l-19.827-42.024l-19.894,42.024H1010.391L1010.391,244.548z M1132.568,294.017h-56.255l-0.117-116.06h11.632
	l0.128,104.737h44.612V294.017L1132.568,294.017z"/>
<path fill-rule="evenodd" clip-rule="evenodd" fill="#FFFFFF" d="M298.378,201.661c-53.192-10.064-59.59-37.541-115.748-48.761
	c-26.599-5.302-42.581-0.292-59.307,14.307c37.616-20.97,101.993-3.924,125.865,29.723c0.692,0.986,8.187,6.067,8.834,7.081
	l-137.82-27.895c-19.921-10.623-11.377-49.667,28.396-57.026c17.47-3.231,32.351,0.057,46.073,6.989v-0.095
	c25.976,12.2,52.862,28.664,84.49,33.206c-17.418,1.369-31.525-0.521-44.536-3.568C253.615,172.415,273.324,190.813,298.378,201.661
	L298.378,201.661z"/>
<g>
	<path fill="#FFFFFF" d="M260.813,36.208c-38.215-24.053-59.373-2.667-59.373-2.667C139.134,52.24,96.409,108.032,85.05,124.252
		c0.054,0.01,0.099,0,0.147,0c34.404,3.63,121.726,12.135,180.132,32.808c15.328,5.562,28.764,12.181,39.13,20.505
		c15.049-18.738,8.037-41.093,8.037-41.093l27.648,10.806C333.955,115.105,299.022,60.251,260.813,36.208z"/>
</g>
<g>
	<path fill="#DD051F" stroke="#000000" stroke-width="8" stroke-miterlimit="10" d="M261.936,36.126
		c-35.271-20.084-57.26-0.801-57.26-0.801c-61.611,18.26-111.485,71.317-125.563,87.389c0.036,0.01,0.094,0,0.125,0.005
		c33.388,3.182,120.827,10.791,180.529,31.98c16.196,5.893,30.509,13.046,41.624,22.237c16.918-20.748,9.71-44.564,9.71-44.564
		l29.799,11.164C334.217,109.991,298.901,57.175,261.936,36.126z"/>
</g>
<g>
	<path fill="#A52029" d="M267.116,83.37c0,0-15.663-0.822-3.192,15.547c12.468,16.369,8.834,27.435,8.834,27.435
		s13.461,17.076-5.951,29.046c-0.271,0.168-0.498,0.366-0.741,0.546c13.649,5.234,25.668,11.392,35.118,18.992
		c11.089-13.82,10.2-29.585,8.957-36.919C303.536,123.064,289.156,96.036,267.116,83.37z"/>
</g>
<linearGradient id="SVGID_1_" gradientUnits="userSpaceOnUse" x1="72.9971" y1="226.918" x2="331.7983" y2="226.918" gradientTransform="matrix(0.9796 0.201 -0.201 0.9796 36.8307 -92.1564)">
	<stop  offset="0" style="stop-color:#FFFFFF"/>
	<stop  offset="1" style="stop-color:#EEECFF"/>
</linearGradient>
<path fill="url(#SVGID_1_)" stroke="#000000" stroke-width="8" stroke-miterlimit="10" d="M249.125,210.614
	c17.942,4.839,31.943,9.196,40.261,13.159c8.182,3.897,17.763-0.771,15.399-7.802c-0.426-1.296-0.979-2.027-0.966-2.02
	c2.953,0.165,5.903,0.303,8.831,0.416c-5.05-3.807-2.141-15.141-2.141-15.141c3.727-10.928-4.854-18.515-4.854-18.536
	c-10.7-9.478-23.55-17.546-40.326-23.629c-58.406-20.673-145.728-29.178-180.132-32.808c-6.482-0.603-11.371,2.732-10.495,7.233
	c0.137,0.706,0.231,1.436,0.265,2.172c0.252,5.743-4.386,6.509-4.386,6.509c-16.538,5.216-4.407,20.95-4.399,21.06
	c-1.043,3.081-0.706,6.003,0.227,8.528c1.563,4.224,7.01,6.979,12.451,6.55c16.183-1.243,53.465,9.204,105.814,21.527
	C205.259,202.689,233.442,206.388,249.125,210.614L249.125,210.614"/>
<g>
	<path d="M295.711,106.586c-8.945-11.321-23.519-25.912-42.18-31.188c-0.915-0.284-1.888,0.088-2.128,0.79
		c-0.239,0.693,0.331,1.478,1.253,1.73c33.794,9.562,54.629,52.292,54.835,52.719c0.227,0.485,0.754,0.835,1.356,0.964
		c0.292,0.061,0.603,0.061,0.894,0c0.891-0.192,1.344-0.933,1.011-1.653C310.685,129.837,305.317,118.741,295.711,106.586z"/>
</g>
<g>
	<path fill="#DAF1F0" d="M326.658,166.336c-5.188,2.156-7.06-2.691-7.06-2.691c-12.167-8.109-5.797-18.5-5.797-18.5
		c-4.881-7.121-1.646-13.809,0.818-17.25c-5.379,2.932-9.09,7.93-10.607,13.846c-2.018,1.538-4.99,3.323-8.128,3.645
		c0,0,3.571,2.058,7.358,2.445c-0.016,2.531,0.343,5.131,1.09,7.758c-1.438,2.248-2.812,5.714-2.027,10.252
		c0,0,1.375-2.574,3.553-4.637c1.087,4.39,4.386,12.965,13.805,13.995c0,0,3.967,1.172,5.338,5.589l2.15-2.289
		c0,0,2.421,0.851,11.785-2.064C328.281,173.979,326.658,166.336,326.658,166.336z"/>
</g>
<g>
	<path fill="#FFFFFF" d="M352.121,144.044c-0.387-0.946-0.811-1.854-1.277-2.736c3.685-1.137,5.187-4.3,5.187-4.3
		c-1.78,1.327-5.119,0.606-8.599-0.825c-7.192-8.862-18.786-13.229-29.067-10.025c-1.416,0.453-2.708,1.046-3.934,1.721
		c-2.475,3.455-5.723,10.17-0.822,17.32c0,0-6.396,10.435,5.821,18.577c0,0,1.879,4.867,7.088,2.702c0,0,1.63,7.674,12.33,10.142
		c0.006-0.006,0.026-0.02,0.059-0.023c2.395-0.744,4.565-1.859,6.466-3.279c0.413-0.059,0.826-0.105,1.288-0.204
		c6.533-1.384,6.652-5.618,5.714-8.787C354.883,158.371,355.007,151.125,352.121,144.044z"/>
</g>
<g>
	<path stroke="#000000" stroke-miterlimit="10" d="M353.679,143.497c-0.189-0.475-0.398-0.951-0.625-1.441
		c3.112-1.583,4.438-4.289,4.488-4.417c0.306-0.638,0.089-1.393-0.519-1.83c-0.599-0.439-1.435-0.449-2.018-0.018
		c-0.729,0.547-2.139,0.398-3.182,0.186c-0.969-0.196-2.079-0.54-3.32-1.032c-4.641-5.561-10.886-9.374-17.629-10.759
		c-4.384-0.897-8.846-0.699-12.906,0.571c-7.639,2.379-13.224,8.234-15.399,16.104c-1.791,1.29-4.332,2.759-6.916,3.021
		c-0.683,0.07-1.233,0.536-1.37,1.163c-0.138,0.633,0.172,1.282,0.765,1.618c0.128,0.07,3.004,1.715,6.441,2.415
		c0.051,0.019,0.1,0.032,0.148,0.04c0.095,2.067,0.417,4.148,0.964,6.221c-1.399,2.37-2.713,6.011-1.914,10.691
		c0.115,0.658,0.718,1.228,1.37,1.304c0.702,0.115,1.39-0.198,1.701-0.775c0.007-0.02,0.527-0.975,1.396-2.136
		c1.821,4.974,5.777,11.241,14.167,12.257c0.59,0.233,3.139,1.344,4.117,4.486c0.167,0.544,0.638,0.955,1.216,1.093
		c0.015,0,0.026,0.01,0.037,0.01c0.577,0.119,1.172-0.063,1.551-0.464l1.59-1.685c1.616,0.09,5.04-0.174,11.722-2.264
		c2.375-0.748,4.597-1.84,6.579-3.265c0.324-0.049,0.645-0.097,0.99-0.172c3.014-0.634,5.125-1.909,6.299-3.764
		c1.09-1.732,1.323-3.864,0.685-6.337C356.687,157.88,356.54,150.501,353.679,143.497z M350.6,169.067
		c-0.711,1.138-2.167,1.953-4.299,2.397c-0.333,0.079-0.646,0.115-0.945,0.158c-0.014,0-0.222,0.032-0.222,0.032
		c-0.27,0.038-0.542,0.137-0.747,0.301c-1.791,1.331-3.795,2.343-5.966,3.018c-8.21,2.563-10.738,2.113-10.738,2.113
		c-0.654-0.219-1.338-0.056-1.767,0.399l-0.464,0.493c-2.023-3.198-5.19-4.173-5.344-4.216c-0.039-0.021-0.099-0.029-0.146-0.043
		c-0.056-0.01-0.111-0.012-0.168-0.012c-8.287-0.935-11.295-8.518-12.348-12.805c-0.132-0.545-0.585-0.982-1.156-1.161
		c-0.575-0.128-1.204-0.009-1.615,0.377c-0.252,0.252-0.5,0.499-0.731,0.748c0.365-1.87,1.099-3.369,1.805-4.462
		c0.213-0.352,0.278-0.773,0.158-1.163c-0.696-2.435-1.041-4.903-1.028-7.362c0.005-0.787-0.638-1.498-1.509-1.551
		c-1.022-0.1-2.021-0.338-2.934-0.634c1.823-0.797,3.423-1.836,4.637-2.765c0.266-0.208,0.455-0.475,0.54-0.792
		c1.82-7.107,6.731-12.4,13.489-14.512c3.557-1.103,7.31-1.271,11.158-0.487c6.105,1.26,11.765,4.781,15.949,9.93
		c0.174,0.209,0.397,0.377,0.664,0.484c1.937,0.787,3.641,1.307,5.099,1.52c-0.474,0.311-1.024,0.57-1.638,0.758
		c-0.444,0.134-0.788,0.43-0.959,0.83c-0.182,0.397-0.162,0.845,0.046,1.241c0.484,0.92,0.883,1.766,1.219,2.596
		c2.625,6.457,2.722,13.24,0.244,19.102c-0.128,0.296-0.152,0.623-0.05,0.949C351.392,166.425,351.309,167.941,350.6,169.067z"/>
</g>
<linearGradient id="SVGID_2_" gradientUnits="userSpaceOnUse" x1="287.5107" y1="350.9023" x2="75.3899" y2="473.3703">
	<stop  offset="0" style="stop-color:#FFFFFF"/>
	<stop  offset="1" style="stop-color:#EEECFF"/>
</linearGradient>
<path fill="url(#SVGID_2_)" stroke="#000000" stroke-width="8" stroke-miterlimit="10" d="M267.42,350.18
	c5.32-0.841,18.881-11.729,5.812-20.939c-0.492,12.574-25.93,4.666-40.859-4.471c-19.851-12.154-47.602-13.545-68.583,4.604
	c-20.963-18.148-48.725-16.758-68.566-4.604c-14.939,9.137-40.375,17.045-40.862,4.471c-13.071,9.21,0.487,20.099,5.815,20.939
	c-24.981,29.457-26.436,83.911,52.534,166.135c14.374,14.978,15.18,26.958,15.18,26.958c7.751-6.699,8.959-11.736,9.443-13.818
	c2.905,6.913,26.456,20.654,26.456,49.149c0-28.495,23.566-42.236,26.462-49.149c0.488,2.082,1.695,7.119,9.443,13.818
	c0,0,0.81-11.98,15.186-26.958C293.848,434.091,292.397,379.637,267.42,350.18z"/>
<path d="M135.211,381.988c6.903,1.309,16.208,3.096,26.908,2.75v-0.026l0.269,0.026l0.282-0.026v0.026
	c10.689,0.346,19.987-1.441,26.898-2.75c7.03-1.303,10.914-17.886-10.994-34.045c-6.181-4.535-11.28-6.315-15.905-6.315l0,0h-0.234
	h-0.1h-0.217l0,0c-4.628,0-9.743,1.78-15.917,6.315C124.297,364.103,128.187,380.686,135.211,381.988z M147.182,355.915
	c2.269-1.213,2.447-1.975,6.276-3.489c3.704-1.703,6.005-0.999,8.637-1.114l0.109-0.013v-0.007l0.039,0.007l0.044-0.007v0.007
	l0.101,0.013l0.112-0.013v-0.007l0.036,0.007l0.036-0.007v0.007l0.106,0.013c2.628,0.115,4.93-0.589,8.647,1.114
	c3.829,1.515,4.004,2.276,6.274,3.489c1.21,0.658,3.606,2.804,1.92,2.033c-1.565-0.711-3.915,0.821-4.652-1.032
	c-1.464,1.692-4.267,0.157-4.916-0.423c-0.536,1.278-0.091,2.04-4.315,1.838c-1.81-0.066-2.6-0.245-2.966-0.568v0.196
	c-0.118-0.058-0.213-0.11-0.282-0.188c-0.075,0.077-0.168,0.13-0.269,0.188v-0.196c-0.375,0.323-1.162,0.502-2.986,0.568
	c-4.22,0.202-3.775-0.56-4.298-1.838c-0.663,0.58-3.454,2.115-4.929,0.423c-0.716,1.854-3.079,0.321-4.643,1.032
	C143.571,358.719,145.97,356.573,147.182,355.915z"/>
</svg>
