<svg xmlns="http://www.w3.org/2000/svg" viewBox="0 0 512 162" xmlns:v="https://vecta.io/nano"><path d="M136.8 31.2c-6.1 5-13.2 5.6-16.2 6.1h1.2c8.5 0 15.7 6.7 15.9 15.4l.1 13.4h-.1l-.1 11.4c0 10.4-8.9 15.8-16.6 16.5-3.4.3-5.5 7.9-6.4 10.8-2.7 9-8.5 10.5-10.7 26.6s-5.2 26.4-31.6 26.4h-1c-26.3.1-28.9-10.3-31.2-26.4-2.2-16.1-8-17.6-10.7-26.6-.9-2.9-3-10.5-6.4-10.8-7.6-.6-16.6-6-16.6-16.5 0-9-.3-16 0-24.6.2-8.7 7.4-15.4 15.9-15.4h11.5C23 19.3 43.5 2.3 67.4 4.9 86.2 7 104.9 17.8 128.3 10c-4.4 6.8-15.1 10.9-22 11.7 11.3 6.2 18.8 8.7 30.5 9.5h0z" fill-rule="evenodd" fill="#0d0f0f"/><path d="M297.8 123.2h2.6l.1-14.5h-2.6l-.1 14.5zm18.3-4.2l-2.9-4.4-4.2-5.9h-2.4l-.1 14.5h2.6v-10.4h.1a35.67 35.67 0 0 0 2.5 3.8l4.7 6.7h2.3l.1-14.5h-2.6v10.3l-.1-.1zm20.4 1.7c-.3-1.7-1.1-3.9-1.7-5.7l-2.1-6.4H330l5 14.5h2.9l5.2-14.5h-2.7l-2.2 6.3-1.8 5.7h.1v.1zm22.5-7.5c0-2.7-1.7-4.5-5.1-4.5H348l-.1 14.5h2.6v-5.7h1.5l4 5.7h3l-4.2-5.7c3.1-.4 4.2-2.6 4.2-4.3h0zm-5.3-2.4c1.5 0 2.8.8 2.7 2.3 0 1.8-1.4 2.3-2.8 2.3h-3.1v-4.6h3.2zm30.5 9.4c-.4-2.1-1-4-1.5-5.8l-1.6-5.7h-2.7l-1.5 5.4-1.6 6.2h-.1l-1.3-6.2-1.3-5.4h-2.8l4 14.5h2.8l1.9-6.5c.6-2 .9-3.4 1.2-4.9h.1c.3 1.8.8 3.2 1.3 5l1.8 6.4h2.8l4.1-14.5H387l-1.4 5.8-1.3 5.7h-.1zm10.2 3h10.3V121H397v-4.3h6.8v-2.2H397v-3.8h7.5v-2.1h-10.1v14.6zm28.5-12.4h4.8v-2.1h-12.2v2.1h4.8v12.4h2.6v-12.4zm20.5 2.4c0-2.7-1.7-4.5-5.1-4.5h-5.9l-.1 14.5h2.6v-5.7h1.5l4 5.7h3l-4.2-5.7c3.2-.4 4.2-2.6 4.2-4.3h0zm-5.3-2.4c1.5 0 2.8.8 2.7 2.3 0 1.8-1.4 2.3-2.8 2.3h-3v-4.6h3.1zm22.9-2.1h-2.6v8.8c0 2.8-1.5 3.9-3.4 3.9-2.2 0-3.6-.8-3.6-3.9v-8.8h-2.6v8.7c0 3.8 1.5 6 6.2 6 4.4 0 6-2.4 6-6v-8.7zm11.6-.2c-4.3 0-5.6 2.3-5.6 4.3 0 2.9 2.5 3.6 5.3 3.9 2.4.3 3.4 1 3.4 2.4 0 1.1-.8 2.1-3.2 2.1-2.3 0-3.5-1.1-3.5-2.8h-2.5c0 .2-.1.4-.1.7 0 3 2.8 4.3 6 4.3 4.1 0 5.9-2.1 5.9-4.4 0-2.7-1.6-3.9-5.3-4.5-2.2-.3-3.5-.6-3.5-1.9 0-1 .9-1.9 2.9-1.9 1.9 0 2.9 1 2.9 2.4h2.5v-.6c.2-2.8-2.6-4-5.2-4h0zm17.6 2.3h4.8v-2.1h-12.2v2.1h4.8v12.4h2.6v-12.4z" fill="#67969a"/><g fill-rule="evenodd"><path d="M21.7 41.3h100.8c6.1 0 11 5 11 11v25c0 6-5 11-11 11H21.7c-6 0-11-5-11-11v-25c0-6 5-11 11-11h0z" fill="#8dbecd"/><path d="M124.1 32.6c-24.6.4-29.9-10.5-55.9-10.4-12.3.1-19 3.5-25.1 11 14.8-11.9 45-10.3 58.7 1.6.4.3 4.2 1.8 4.6 2.2l-63.8.2C32.8 34.5 33 17.5 50 11c7.5-2.8 14.4-2.7 21.1-1h0c12.7 2.9 26.1 7.4 40.6 6.6-7.6 2.1-14.1 2.5-20.1 2.3 9.9 5.4 20.4 11.3 32.5 13.7h0z" fill="#fff"/></g><path d="M96.6 63H81.1v-4h15.5c2.7 0 2.7 4.3 0 4h0zm9.2-2.1c0-6.7-4.9-7.8-7.7-7.8H73.3v25.3h7.8v-10h11.1l3.5 4.2 4.7 5.8h8.9l-9-10.7c5.6-.4 5.5-6.8 5.5-6.8h0zM71 53.3L65.8 59l-8 9-8-9-5.5-5.9h-9.5l5.4 5.9c1.6 1.7 17.5 19.3 17.5 19.2l13.2-14.5V53.3h.1z" fill="#fff"/><path d="M64.3 110.7c3-2.2 5.5-3.1 7.7-3.1h.2c2.2 0 4.7.9 7.7 3.1 10.7 7.9 8.8 15.9 5.3 16.6-3.4.6-7.9 1.5-13.1 1.3h0-.2c-5.2.2-9.7-.7-13.1-1.3-3.3-.7-5.1-8.7 5.5-16.6h0zm8-19.3h0-.3c-.7 0-1.5.1-2.2.1-7.5 1.2-8.8 9-16.5 9.8-7.6.7-10.8 2.7-15.9 9.3 3.9 5.6 5.3 11.4 6.6 19.5 2.7 16.9 6 23.8 28 24h.2c22.1-.2 25.4-7.1 28-24 1.3-8.2 2.7-13.9 6.6-19.5-5-6.6-8.2-8.5-15.9-9.3-7.6-.7-9-8.6-16.5-9.8-.7 0-1.5-.1-2.2-.1h.1zm-.1 45.4h0c-.9 0-2.4 1-4.2-.2-10-5.1 2.2-3.6 4.1-3.6h.2c1.9 0 14-1.5 4.1 3.6-1.9 1.2-3.3.2-4.2.2h0zm3-41.8c-2.8-.2-.7 4 .2 4.5.7.4 1.4.5 2.8.6s1.7.3 2.7.2c2.2 0-2.9-5.1-5.7-5.3h0zm-3 17.3h0c1.4.1 2.5-.3 4.3.5 1.9.7 1.9 1.1 3 1.7.6.3 1.8 1.4.9 1-.8-.3-1.9.4-2.3-.5-.7.8-2.1.1-2.4-.2-.3.6 0 1-2.1.9-.9 0-1.3-.1-1.4-.3v.1c-.1 0-.1-.1-.1-.1l-.1.1v-.1c-.2.2-.6.2-1.4.3-2.1.1-1.8-.3-2.1-.9-.3.3-1.7 1-2.4.2-.4.9-1.5.2-2.3.5-.8.4.3-.7.9-1 1.1-.6 1.2-1 3-1.7 1.8-.8 2.9-.5 4.2-.5h.3zM69.1 95c2.8-.2.7 4-.2 4.5-.7.4-1.4.5-2.8.6s-1.7.3-2.7.2c-2.1 0 3-5.1 5.7-5.3h0z" fill-rule="evenodd" fill="#fff"/><path d="M178 75.5c0 4.1-.2 7-.6 8.8-.7 3.2-2.3 5.5-4.7 7.1-1.9 1.2-4.2 1.9-6.9 1.9-4.1 0-8.3-1.8-12.7-5.4l2.7-4c2.6 1.8 4.8 3.1 6.6 3.8 1.2.5 2.3.8 3.4.8 1.5 0 2.8-.4 4-1.3s2-2 2.5-3.5c.5-1.4.7-4.2.7-8.4v-34h5.1l-.1 34.2zm65.9-8.9c0 7.5-2.5 13.8-7.7 18.9-5.1 5.1-11.4 7.7-18.9 7.7s-13.8-2.5-19-7.6-7.8-11.3-7.8-18.8c0-4.8 1.2-9.3 3.5-13.5 2.3-4.1 5.5-7.4 9.7-9.8 4.1-2.3 8.4-3.5 13.2-3.5 7.6 0 14 2.5 19.2 7.5 5.2 5.2 7.8 11.5 7.8 19.1h0zm-5.2 0c0-8.3-3.6-14.6-10.7-18.7-3.4-2-7-2.9-10.9-2.9-3.8 0-7.4 1-10.7 2.9s-6 4.6-7.8 7.9c-1.9 3.3-2.8 7-2.8 11 0 6 2.1 11 6.2 15.2 4.1 4.1 9.2 6.2 15.2 6.2 3.9 0 7.6-.9 10.9-2.8s5.9-4.5 7.8-7.8 2.8-7 2.8-11h0zm51.7 5.3c0 4.3-.3 7.7-1 10.1-1 3.3-2.8 6-5.5 8.1s-5.9 3.2-9.7 3.2-7.2-.9-10.1-2.6c-3.1-1.9-5.2-4.6-6.3-8.1-.6-2-.9-5.5-.9-10.7V41.3h5v30.5c0 3.5.1 5.8.2 6.8.5 4 2.5 6.7 6 8.4 1.9.9 3.9 1.4 5.8 1.4 3.6 0 6.5-1.3 8.7-4 1-1.3 1.8-2.8 2.3-4.6.3-1.3.5-3.9.5-7.9V41.4h5v30.5zm49 20h-6.2l-18.4-23.6h-2.9v23.6h-5l-.1-50.6H317c5.6 0 9.5.2 11.5.7 3.1.7 5.6 2.2 7.4 4.5s2.7 5 2.7 8.3c0 5.8-2.5 9.8-7.6 12-2.4 1.1-5.8 1.6-10.1 1.7l18.5 23.4zm-6-37.1c0-1.7-.4-3.2-1.4-4.6-.9-1.4-2.1-2.4-3.6-3s-4-.9-7.5-.9h-9v17.1l8.8.1c5.8 0 9.6-1.3 11.4-4 .9-1.4 1.3-3 1.3-4.7h0zm61.9 37.1h-1.2l-33.4-38.3v38.3h-5.2l-.1-50.6h1.1l33.7 38.8V41.3h5l.1 50.6zm62.1 0H452l-8-16.6h-21.9l-7.9 16.6h-5.6l23.9-50.6h1.3l23.6 50.6zm-15.7-21.6L433 52l-8.7 18.3h17.4zM495 91.9h-24.5l-.1-50.6h5.1V87H495v4.9z" fill="#0d0f0f"/></svg>