<svg xmlns="http://www.w3.org/2000/svg" width="1140" height="600" xmlns:v="https://vecta.io/nano"><style><![CDATA[.B{fill-rule:evenodd}.C{stroke:#000}.D{stroke-miterlimit:10}.E{stroke-width:8}]]></style><path d="M290.917 156.23c-13.923 11.46-9.394 11.403-16.188 12.52l2.822-.014c19.434-.085 35.898 15.4 36.44 35.23.3 10.933.254 20.677.157 30.683h-.125l-.2 26.106c0 23.888-20.476 36.31-38.003 37.753-7.826.638-12.6 18.133-14.597 24.807-6.188 20.612-19.432 24.084-24.537 60.898-5.1 36.837-12.026 60.383-72.37 60.383h-2.806c-60.332.253-66.287-23.546-71.392-60.383-5.108-36.814-18.352-40.286-24.537-60.898-1.998-6.674-6.78-24.17-14.596-24.807-17.52-1.444-38.003-13.865-38.003-37.753l-.057-56.467c.537-19.85 17.016-35.32 36.456-35.233l26.406.105c-24.958-41.63 22-80.657 76.94-74.484 42.976 4.825 85.902 29.557 139.456 11.785-10.183 15.685-34.6 25.035-50.497 26.752 26.078 14.018 16.87 16.428 43.62 18.336l5.6 4.68z" class="B"/><path fill="#689a9f" d="M680.61 365.694h5.968l.122-33.327h-5.964l-.126 33.327zm41.963-9.664c-2.066-3.348-4.325-6.81-6.64-10.047l-9.656-13.616h-5.562l-.127 33.327h5.96l.1-23.86.24-.113c1.767 3.176 3.77 5.978 5.684 8.686l10.785 15.288h5.37l.137-33.327h-5.877l-.083 23.628-.33.034zm46.846 3.947c-.753-3.946-2.476-8.926-3.828-12.963l-4.83-14.646h-6.15l11.556 33.327h6.647l12.008-33.327h-6.123l-4.925 14.502c-1.402 3.99-2.894 8.22-4.045 13.107h-.31zm51.466-17.315c.02-6.14-3.87-10.295-11.664-10.295h-13.507l-.11 33.327h5.918l.042-12.96h3.54l9.268 12.96h6.97l-9.657-13.17c6.76-.936 9.178-5.952 9.2-9.863h0zm-12.175-5.403c3.456 0 6.304 1.87 6.304 5.36-.014 4.048-3.22 5.28-6.32 5.28h-7.155l.027-10.64 7.145.001zm69.95 21.48c-1.037-4.78-2.344-9.224-3.452-13.298l-3.653-13.074h-6.26l-3.44 12.323c-1.114 4.035-2.307 7.835-3.7 14.1h-.228c-.928-5.372-2.095-9.814-3.06-14.1l-2.916-12.323h-6.307l9.088 33.327h6.468l4.245-14.8c1.29-4.573 2.14-7.793 2.804-11.236h.186c.743 4.182 1.795 7.438 2.927 11.43l4.18 14.598h6.508l9.3-33.327h-6.372l-3.155 13.32-2.897 13.052h-.253 0zm23.254 6.955h23.58v-4.94h-17.644l.048-9.85h15.66l.028-4.92h-15.688l.047-8.725h17.2v-4.892h-23.12l-.108 33.328zm65.443-28.435h10.9v-4.892h-27.85l-.03 4.892h11.062l-.11 28.436h5.904l.123-28.436zm47 5.403c.023-6.14-3.866-10.295-11.64-10.295H989.23l-.137 33.327h5.905l.046-12.96h3.563l9.273 12.96h6.944l-9.657-13.17c6.762-.936 9.2-5.952 9.2-9.863h0zm-12.137-5.403c3.444 0 6.292 1.87 6.277 5.36-.032 4.048-3.226 5.28-6.325 5.28h-7.154l.045-10.64 7.157.001zm52.464-4.892h-5.875l-.066 20.06c-.023 6.364-3.376 8.886-7.82 8.886-4.925 0-8.32-1.93-8.308-8.826l.08-20.118h-5.964l-.064 19.908c-.048 8.65 3.44 13.81 14.2 13.81 10.073 0 13.732-5.57 13.758-13.758l.07-19.962zm26.495-.347c-9.83 0-12.867 5.24-12.867 9.914-.016 6.714 5.736 8.18 12.238 8.97 5.576.685 7.735 2.217 7.735 5.48-.02 2.407-1.91 4.87-7.265 4.87-5.32 0-7.984-2.604-8.06-6.404h-5.63c-.092.494-.16.98-.16 1.535-.02 6.798 6.44 9.76 13.7 9.76 9.402 0 13.557-4.74 13.585-10.016.02-6.214-3.777-9.02-12.2-10.297-5.082-.795-7.933-1.284-7.933-4.396.02-2.358 2-4.385 6.57-4.385 4.303 0 6.654 2.322 6.74 5.432h5.733c.045-.41.093-.943.093-1.48.03-6.254-6.368-8.98-12.28-8.98h0zm40.463 5.24h10.9l.018-4.892H1104.7l-.034 4.892h11.066l-.1 28.436h5.93l.098-28.436z"/><path fill="#8ec4d4" d="M47.99 177.935h230.943c13.94 0 25.32 11.482 25.32 25.313v57.322c0 13.823-11.486 25.312-25.32 25.312H47.99c-13.826 0-25.318-11.395-25.318-25.312v-57.322c0-13.924 11.4-25.313 25.318-25.313h0z" class="B"/><g fill="#fff"><path d="M219.516 227.696h-35.448v-9.237h35.448c6.347.107 6.178 9.835 0 9.237h0zm21.182-4.7c0-15.325-11.327-17.86-17.752-17.972h-56.8v13.435h-.043v44.705h17.955v-22.9h25.53l8.022 9.532 10.682 13.297 20.503.02-20.662-24.526c12.815-1.127 12.553-15.602 12.553-15.602h0zm-79.758-17.444l-12.013 12.907-18.283 20.73-18.263-20.73-12.518-13.435H78.125l12.43 13.435 40.088 44.074c.04.038 18.347-20.118 30.296-33.284v-23.697z"/><path d="M145.563 337.016c6.883-5.07 12.576-7.03 17.724-7.03h.625c5.145 0 10.847 1.962 17.722 7.03 24.418 18.012 20.08 36.462 12.253 37.948-7.7 1.443-18.054 3.435-29.975 3.056v-.026l-.313.018-.313-.018v.026c-11.91.38-22.28-1.612-29.967-3.056-7.83-1.486-12.158-19.937 12.244-37.948h0zm18.254-44.112v-.006h-.428v.006l-.33-.006v.02l-5.065.204c-17.185 2.76-20.222 20.688-37.705 22.4-17.47 1.705-24.825 6.1-36.334 21.296 8.83 12.896 12.17 26.065 15.104 44.782 6.085 38.62 13.643 54.583 64.228 54.933h.626c50.593-.35 58.15-16.313 64.228-54.933 2.947-18.717 6.277-31.886 15.102-44.782-11.51-15.195-18.847-19.59-36.334-21.296-17.473-1.712-20.513-19.642-37.703-22.4l-5.062-.204v-.02l-.327.006zM163.6 396.89l-.128-.01h-.065c-1.84.05-5.21 2.243-9.31-.388-22.84-11.705 4.945-8.31 9.31-8.262h.397c4.352-.05 32.144-3.443 9.31 8.262-4.107 2.63-7.476.438-9.31.388h-.07l-.133.01zm6.96-95.797c-6.35-.494-1.686 9.207.486 10.395 1.646.907 3.2 1.23 6.42 1.408 3.198.327 3.984.645 6.095.553 4.982-.206-6.647-11.87-13-12.356h0zm-6.837 39.655h.08v.014h.132c2.93.124 5.496-.653 9.62 1.23 4.27 1.708 4.467 2.552 7 3.896 1.354.72 4.022 3.127 2.133 2.276-1.733-.806-4.364.9-5.174-1.158-1.642 1.878-4.763.177-5.487-.454-.584 1.43-.092 2.24-4.79 2.046-2.027-.102-2.913-.276-3.318-.635v.2c-.125-.06-.224-.13-.313-.182-.08.05-.187.122-.313.182v-.2c-.408.358-1.284.533-3.304.635-4.714.195-4.2-.615-4.804-2.046-.72.63-3.837 2.332-5.48.454-.8 2.068-3.43.353-5.174 1.158-1.887.85.787-1.557 2.134-2.276 2.53-1.344 2.724-2.188 6.992-3.896 4.134-1.884 6.7-1.106 9.63-1.23h.1v-.014h.1v.014h.24v-.014h.002zm-7.077-39.655c6.355-.494 1.69 9.207-.485 10.395-1.644.907-3.188 1.23-6.422 1.408-3.196.327-3.985.645-6.098.553-4.978-.206 6.652-11.87 13.005-12.356h0z" class="B"/></g><path d="M406.15 256.292c.014 9.407-.462 16.146-1.405 20.21-1.608 7.254-5.183 12.64-10.73 16.167-4.366 2.823-9.67 4.257-15.863 4.257-9.43 0-19.104-4.1-29.033-12.282l6.16-9.222c6.02 4.127 11.056 7.04 15.13 8.73 2.638 1.2 5.225 1.783 7.753 1.783 3.423 0 6.47-1.026 9.137-3.042 2.66-2.025 4.546-4.666 5.613-7.95 1.08-3.293 1.613-9.677 1.603-19.183l-.083-77.802h11.65l.07 78.335zm150.997-20.36c.016 17.102-5.846 31.544-17.573 43.323-11.764 11.773-26.165 17.67-43.28 17.67-17.08 0-31.576-5.823-43.478-17.43-11.886-11.653-17.86-25.95-17.873-43.005-.013-11.038 2.656-21.328 7.938-30.84 5.305-9.513 12.675-17.03 22.154-22.55 9.29-5.36 19.367-8.053 30.192-8.053 17.46 0 32.124 5.763 43.953 17.268 11.952 11.694 17.952 26.203 17.966 43.615h0zm-11.96.046c-.024-19.096-8.17-33.367-24.452-42.755-7.82-4.468-16.116-6.7-24.9-6.7-8.702 0-16.888 2.232-24.537 6.7-7.672 4.45-13.652 10.46-17.955 18.03s-6.448 15.997-6.432 25.297c.004 13.687 4.708 25.297 14.093 34.815 9.378 9.5 21.007 14.24 34.82 14.24 9.02 0 17.345-2.146 25-6.465 7.647-4.313 13.613-10.264 17.918-17.866 4.3-7.608 6.444-16.053 6.444-25.297h0zm118.4 12.02c.005 9.888-.762 17.577-2.354 23.053-2.248 7.637-6.47 13.83-12.673 18.658-6.147 4.823-13.563 7.218-22.2 7.218-8.758 0-16.45-1.993-23.07-6.007-7.165-4.372-12.005-10.52-14.49-18.46-1.438-4.575-2.143-12.704-2.148-24.46l-.07-70.04h11.48l.064 69.99c.017 8.036.175 13.198.497 15.515 1.226 9.05 5.843 15.424 13.825 19.163 4.412 2.093 8.84 3.146 13.272 3.146 8.25 0 14.934-3.076 19.988-9.2 2.386-2.915 4.137-6.392 5.24-10.493.787-2.95 1.177-8.993 1.167-18.122l-.075-69.99h11.48l.078 70.04zm112.4 46.02h-14.24l-42.074-53.984h-6.628l.065 53.984H701.63l-.12-116.06h23.17c12.887 0 21.652.544 26.25 1.59 7.133 1.614 12.836 5.058 17.05 10.318 4.182 5.254 6.273 11.558 6.3 18.932 0 13.232-5.773 22.394-17.32 27.43-5.543 2.474-13.243 3.74-23.066 3.805l42.092 53.984zM762.32 208.83c-.022-3.824-1.035-7.298-3.11-10.483a17.55 17.55 0 0 0-8.349-6.841c-3.518-1.375-9.265-2.073-17.292-2.073H713l.037 39.28 20.113.158c13.324.104 21.996-2.99 26.06-9.262 2.076-3.214 3.11-6.788 3.11-10.778h0zm141.868 85.188h-2.736l-76.55-87.78.07 87.78h-11.938l-.11-116.06h2.573l77.2 88.9-.1-88.9h11.478l.1 116.06zm142.106 0h-12.473l-18.283-38.146h-50.07l-18.128 38.146h-12.92l54.674-116.06h2.918l54.282 116.06zm-35.903-49.47l-19.827-42.024-19.894 42.024h39.72zm122.177 49.47h-56.255l-.117-116.06h11.632l.128 104.737h44.612v11.323z"/><g fill="#fff"><path d="M298.378 201.66c-53.192-10.064-59.6-37.54-115.748-48.76-26.6-5.302-42.58-.292-59.307 14.307 37.616-20.97 101.993-3.924 125.865 29.723.692.986 8.187 6.067 8.834 7.08l-137.82-27.895c-19.92-10.623-11.377-49.667 28.396-57.026 17.47-3.23 32.35.057 46.073 6.99v-.095c25.976 12.2 52.862 28.664 84.5 33.206-17.418 1.37-31.525-.52-44.536-3.568 19 16.793 38.7 35.19 63.753 46.04h0z" class="B"/><path d="M260.813 36.208c-38.215-24.053-59.373-2.667-59.373-2.667-62.306 18.7-105.03 74.49-116.4 90.71.054.01.1 0 .147 0 34.404 3.63 121.726 12.135 180.132 32.808 15.328 5.562 28.764 12.18 39.13 20.505 15.05-18.738 8.037-41.093 8.037-41.093l27.648 10.806c-6.19-32.173-41.122-87.027-79.33-111.07z"/></g><path fill="#dd051f" d="M261.936 36.126c-35.27-20.084-57.26-.8-57.26-.8-61.61 18.26-111.485 71.317-125.563 87.39.036.01.094 0 .125.005 33.388 3.182 120.827 10.79 180.53 31.98 16.196 5.893 30.51 13.046 41.624 22.237 16.918-20.748 9.7-44.564 9.7-44.564l29.8 11.164c-6.683-33.545-42-86.36-78.964-107.4z" class="C D E"/><path fill="#a52029" d="M267.116 83.37s-15.663-.822-3.192 15.547 8.834 27.435 8.834 27.435 13.46 17.076-5.95 29.046c-.27.168-.498.366-.74.546 13.65 5.234 25.668 11.392 35.118 18.992 11.09-13.82 10.2-29.585 8.957-36.92-6.605-14.953-20.985-41.98-43.025-54.647z"/><linearGradient id="A" gradientUnits="userSpaceOnUse" x1="62.728" y1="144.805" x2="316.25" y2="196.824"><stop offset="0" stop-color="#fff"/><stop offset="1" stop-color="#eeecff"/></linearGradient><path fill="url(#A)" d="M249.125 210.614c17.942 4.84 31.943 9.196 40.26 13.16 8.182 3.897 17.763-.77 15.4-7.802-.426-1.296-.98-2.027-.966-2.02l8.83.416c-5.05-3.807-2.14-15.14-2.14-15.14 3.727-10.928-4.854-18.515-4.854-18.536-10.7-9.478-23.55-17.546-40.326-23.63-58.406-20.673-145.728-29.178-180.132-32.808-6.482-.603-11.37 2.732-10.495 7.233.137.706.23 1.436.265 2.172.252 5.743-4.386 6.51-4.386 6.51-16.538 5.216-4.407 20.95-4.4 21.06-1.043 3.08-.706 6.003.227 8.528 1.563 4.224 7 6.98 12.45 6.55 16.183-1.243 53.465 9.204 105.814 21.527 20.585 4.857 48.768 8.556 64.45 12.782h0" class="C D E"/><path d="M295.71 106.586c-8.945-11.32-23.52-25.912-42.18-31.188-.915-.284-1.888.088-2.128.8-.24.693.33 1.478 1.253 1.73 33.794 9.562 54.63 52.292 54.835 52.72.227.485.754.835 1.356.964.292.06.603.06.894 0 .89-.192 1.344-.933 1.01-1.653-.067-.11-5.435-11.207-15.04-23.362z"/><path fill="#daf1f0" d="M326.658 166.336c-5.188 2.156-7.06-2.69-7.06-2.69-12.167-8.11-5.797-18.5-5.797-18.5-4.88-7.12-1.646-13.81.818-17.25-5.38 2.932-9.1 7.93-10.607 13.846-2.018 1.538-5 3.323-8.128 3.645 0 0 3.57 2.058 7.358 2.445-.016 2.53.343 5.13 1.1 7.758-1.438 2.248-2.812 5.714-2.027 10.252 0 0 1.375-2.574 3.553-4.637 1.087 4.4 4.386 12.965 13.805 13.995 0 0 3.967 1.172 5.338 5.59l2.15-2.29s2.42.85 11.785-2.064c-10.655-2.456-12.278-10.1-12.278-10.1z"/><path fill="#fff" d="M352.12 144.044l-1.277-2.736c3.685-1.137 5.187-4.3 5.187-4.3-1.78 1.327-5.12.606-8.6-.825-7.192-8.862-18.786-13.23-29.067-10.025-1.416.453-2.708 1.046-3.934 1.72-2.475 3.455-5.723 10.17-.822 17.32 0 0-6.396 10.435 5.82 18.577 0 0 1.88 4.867 7.088 2.702 0 0 1.63 7.674 12.33 10.142a.1.1 0 0 1 .059-.023c2.395-.744 4.565-1.86 6.466-3.28.413-.06.826-.105 1.288-.204 6.533-1.384 6.652-5.618 5.714-8.787 2.508-5.956 2.632-13.202-.254-20.283z"/><path d="M353.68 143.497l-.625-1.44c3.112-1.583 4.438-4.29 4.488-4.417.306-.638.09-1.393-.52-1.83-.6-.44-1.435-.45-2.018-.018-.73.547-2.14.398-3.182.186-.97-.196-2.08-.54-3.32-1.032-4.64-5.56-10.886-9.374-17.63-10.76-4.384-.897-8.846-.7-12.906.57-7.64 2.38-13.224 8.234-15.4 16.104-1.79 1.3-4.332 2.76-6.916 3.02-.683.07-1.233.536-1.37 1.163-.138.633.172 1.282.765 1.618.128.07 3.004 1.715 6.44 2.415a.8.8 0 0 0 .148.04c.095 2.067.417 4.148.964 6.22-1.4 2.37-2.713 6.01-1.914 10.69.115.658.718 1.228 1.37 1.304.702.115 1.4-.198 1.7-.775.007-.02.527-.975 1.396-2.136 1.82 4.974 5.777 11.24 14.167 12.257a7.08 7.08 0 0 1 4.117 4.486c.167.544.638.955 1.216 1.093.015 0 .026.01.037.01.577.12 1.172-.063 1.55-.464l1.6-1.685c1.616.1 5.04-.174 11.722-2.264 2.375-.748 4.597-1.84 6.58-3.265.324-.05.645-.097 1-.172 3.014-.634 5.125-1.91 6.3-3.764 1.1-1.732 1.323-3.864.685-6.337 2.58-6.438 2.433-13.817-.428-20.82zm-3.08 25.57c-.71 1.138-2.167 1.953-4.3 2.397-.333.08-.646.115-.945.158-.014 0-.222.032-.222.032-.27.038-.542.137-.747.3-1.79 1.33-3.795 2.343-5.966 3.018-8.2 2.563-10.738 2.113-10.738 2.113-.654-.22-1.338-.056-1.767.4l-.464.493c-2.023-3.198-5.2-4.173-5.344-4.216-.04-.02-.1-.03-.146-.043-.056-.01-.11-.012-.168-.012-8.287-.935-11.295-8.518-12.348-12.805-.132-.545-.585-.982-1.156-1.16-.575-.128-1.204-.01-1.615.377l-.73.748a12.72 12.72 0 0 1 1.805-4.462c.213-.352.278-.773.158-1.163-.696-2.435-1.04-4.903-1.028-7.362.005-.787-.638-1.498-1.51-1.55-1.022-.1-2.02-.338-2.934-.634 1.823-.797 3.423-1.836 4.637-2.765a1.49 1.49 0 0 0 .54-.792c1.82-7.107 6.73-12.4 13.49-14.512 3.557-1.103 7.3-1.27 11.158-.487 6.105 1.26 11.765 4.78 15.95 9.93.174.21.397.377.664.484 1.937.787 3.64 1.307 5.1 1.52-.474.31-1.024.57-1.638.758-.444.134-.788.43-.96.83-.182.397-.162.845.046 1.24.484.92.883 1.766 1.22 2.596 2.625 6.457 2.722 13.24.244 19.102-.128.296-.152.623-.05.95.558 1.877.475 3.393-.234 4.52z" class="C D"/><linearGradient id="B" gradientUnits="userSpaceOnUse" x1="287.511" y1="350.902" x2="75.39" y2="473.37"><stop offset="0" stop-color="#fff"/><stop offset="1" stop-color="#eeecff"/></linearGradient><path fill="url(#B)" d="M267.42 350.18c5.32-.84 18.88-11.73 5.812-20.94-.492 12.574-25.93 4.666-40.86-4.47-19.85-12.154-47.602-13.545-68.583 4.604-20.963-18.148-48.725-16.758-68.566-4.604-14.94 9.137-40.375 17.045-40.862 4.47-13.07 9.2.487 20.1 5.815 20.94-24.98 29.457-26.436 83.91 52.534 166.135 14.374 14.978 15.18 26.958 15.18 26.958 7.75-6.7 8.96-11.736 9.443-13.818 2.905 6.913 26.456 20.654 26.456 49.15 0-28.495 23.566-42.236 26.462-49.15.488 2.082 1.695 7.12 9.443 13.818 0 0 .8-11.98 15.186-26.958 78.967-82.224 77.516-136.678 52.54-166.135z" class="C D E"/><path d="M135.21 381.988c6.903 1.31 16.208 3.096 26.908 2.75v-.026l.27.026.282-.026v.026c10.69.346 19.987-1.44 26.898-2.75 7.03-1.303 10.914-17.886-10.994-34.045-6.18-4.535-11.28-6.315-15.905-6.315h0-.55c-4.628 0-9.743 1.78-15.917 6.315-21.904 16.16-18.014 32.743-11 34.045zm11.97-26.073c2.27-1.213 2.447-1.975 6.276-3.49 3.704-1.703 6.005-1 8.637-1.114l.11-.013v-.007l.04.007.044-.007v.007l.1.013.112-.013v-.007l.036.007.036-.007v.007l.106.013c2.628.115 4.93-.59 8.647 1.114 3.83 1.515 4.004 2.276 6.274 3.49 1.2.658 3.606 2.804 1.92 2.033-1.565-.71-3.915.82-4.652-1.032-1.464 1.692-4.267.157-4.916-.423-.536 1.278-.09 2.04-4.315 1.838-1.8-.066-2.6-.245-2.966-.568v.196c-.118-.058-.213-.1-.282-.188-.075.077-.168.13-.27.188v-.196c-.375.323-1.162.502-2.986.568-4.22.202-3.775-.56-4.298-1.838-.663.58-3.454 2.115-4.93.423-.716 1.854-3.08.32-4.643 1.032-1.692.77.707-1.375 1.92-2.033z"/></svg>