<svg xmlns="http://www.w3.org/2000/svg" viewBox="0 0 140 97" xmlns:v="https://vecta.io/nano"><g fill-rule="evenodd"><path d="M105.8 19.1c-3.5 2.8-7.5 3.2-9.2 3.4h.7c4.8 0 8.9 3.8 9 8.7.1 2.7.1 5.1 0 7.6h0v6.5c0 5.9-5.1 9-9.4 9.4-1.9.2-3.1 4.5-3.6 6.2-1.5 5.1-4.8 6-6.1 15.1s-3 15-18 15h-.7c-15 .1-16.5-5.8-17.7-15-1.3-9.1-4.6-10-6.1-15.1-.5-1.7-1.7-6-3.6-6.2-4.3-.4-9.4-3.4-9.4-9.4v-14c.1-4.9 4.2-8.8 9-8.7h6.6c-6.3-10.3 5.4-20 19-18.4 10.7 1.2 21.3 7.3 34.6 2.9-2.5 3.9-8.6 6.2-12.5 6.6 6.5 3.5 10.8 4.9 17.4 5.4h0z" fill="#3f3f3f"/><path d="M40.3 24.8h57.3c3.5 0 6.3 2.8 6.3 6.3v14.2c0 3.4-2.8 6.3-6.3 6.3H40.3c-3.4 0-6.3-2.8-6.3-6.3V31.1c.1-3.5 2.9-6.3 6.3-6.3h0z" fill="#bcbcbc"/><path d="M98.6 19.9c-14 .2-17-6-31.8-5.9-7 0-10.8 2-14.2 6.3 8.4-6.8 25.6-5.9 33.4.9.2.2 2.4 1 2.6 1.2l-36.3.1c-5.6-1.5-5.5-11.2 4.2-14.9C60.7 6 64.7 6 68.5 7h0c7.2 1.6 14.8 4.2 23.1 3.8-4.3 1.2-8 1.4-11.4 1.3 5.5 3 11.5 6.4 18.4 7.8h0z" fill="#fff"/></g><path d="M82.9 37.2h-8.8v-2.3h8.8c1.6 0 1.5 2.4 0 2.3h0zm5.3-1.2c0-3.8-2.8-4.4-4.4-4.5H69.7V46h4.5v-5.7h6.3l2 2.4 2.7 3.3h5.1l-5.1-6.1c3-.3 3-3.9 3-3.9h0zm-19.8-4.3l-3 3.2-4.5 5.1-4.5-5.1-3.1-3.3h-5.4l3.1 3.3 10 10.9 7.5-8.3v-5.8h-.1z" fill="#fff"/><path d="M64.6 64.3c1.7-1.3 3.1-1.7 4.4-1.7h.2c1.3 0 2.7.5 4.4 1.7 6.1 4.5 5 9 3 9.4-1.9.4-4.5.9-7.4.8h0-.2c-3 .1-5.5-.4-7.4-.8-2-.3-3.1-4.9 3-9.4h0zm4.5-10.9h0-.2c-.4 0-.8 0-1.3.1-4.3.7-5 5.1-9.4 5.6-4.3.4-6.2 1.5-9 5.3 2.2 3.2 3 6.5 3.7 11.1C54.5 85 56.4 88.9 69 89h.2c12.6-.1 14.4-4 15.9-13.6.7-4.6 1.6-7.9 3.7-11.1-2.9-3.8-4.7-4.9-9-5.3s-5.1-4.9-9.4-5.6h-1.3zM69 79.2h0c-.5 0-1.3.6-2.4-.1C61 76.2 67.9 77 69 77h0c1.1 0 8-.9 2.3 2-.9.7-1.8.2-2.3.2h0zm1.8-23.8c-1.6-.1-.4 2.3.1 2.6.4.2.8.3 1.6.3.8.1 1 .2 1.5.1 1.2 0-1.7-2.9-3.2-3h0zm-1.7 9.8h0c.8 0 1.4-.2 2.4.3 1.1.4 1.1.6 1.7 1 .3.2 1 .8.5.6-.4-.2-1.1.2-1.3-.3-.4.5-1.2 0-1.4-.1-.1.4 0 .6-1.2.5-.5 0-.7-.1-.8-.2v.1h-.2V67c-.1.1-.3.1-.8.2-1.2.1-1-.2-1.2-.5-.2.2-1 .6-1.4.1-.2.5-.9.1-1.3.3-.5.2.2-.4.5-.6.6-.3.7-.5 1.7-1s1.7-.3 2.4-.3h.4zm-1.8-9.8c1.6-.1.4 2.3-.1 2.6-.4.2-.8.3-1.6.3-.8.1-1 .2-1.5.1-1.3 0 1.6-2.9 3.2-3h0z" fill-rule="evenodd" fill="#fff"/></svg>