<svg xmlns="http://www.w3.org/2000/svg" viewBox="0 0 250.313 250.313" width="512" height="512" xmlns:v="https://vecta.io/nano"><path d="M244.186 214.604l-54.38-54.378c-.29-.29-.628-.49-.93-.76a102.4 102.4 0 0 0 16.945-56.554C205.822 46.075 159.747 0 102.91 0S0 46.075 0 102.91s46.074 102.91 102.9 102.91c20.895 0 40.323-6.245 56.554-16.945.27.3.47.64.76.93l54.38 54.38c8.17 8.168 21.413 8.168 29.583 0s8.168-21.413 0-29.582zM102.91 170.146c-37.134 0-67.236-30.102-67.236-67.235s30.103-67.236 67.236-67.236 67.235 30.103 67.235 67.236-30.103 67.235-67.235 67.235z" fill="#8dbecd" fill-rule="evenodd"/></svg>