<svg xmlns="http://www.w3.org/2000/svg" viewBox="0 0 17 10" xmlns:v="https://vecta.io/nano"><path d="M14.7 7.9c-.3-.5-.7-1-1.3-1.6h0l-.5-.5c-.1-.2-.2-.4-.1-.5s.3-.4.6-.9c.2-.2.3-.4.4-.6.8-1 1.1-1.7 1-2v-.1s-.1-.1-.2-.1h-2.5l-.1.1s0 .1-.1.1c-.2.5-.4 1-.7 1.5-.2.3-.3.5-.5.7-.1.2-.3.4-.3.4-.1.1-.2.2-.3.2-.2.3-.2.3-.3.3h-.1c-.1 0-.1-.1-.1-.2s-.1-.2-.1-.3V1.8c0-.1 0-.1-.1-.2 0-.1-.1-.1-.1-.2-.1 0-.1-.1-.2-.1-.3.1-.6.1-.9.1-.8 0-1.4 0-1.6.2-.1 0-.2.1-.3.2s-.1.2 0 .2c.3 0 .5.1.6.3v.1c0 .1.1.2.1.3 0 0 0 .2 0 .3v1.4c0 .1-.1.2-.1.3s-.1.1-.1.1h-.2c-.1 0-.1 0-.2-.1-.1.1-.2 0-.3-.1s-.2-.3-.3-.5c-.2-.2-.3-.4-.4-.7l-.1-.2c-.1-.1-.2-.3-.3-.5s-.2-.5-.3-.7c0-.1-.1-.2-.2-.2h0s-.1 0-.1-.1h-2c-.2 0-.3 0-.4.1h0v.3l.9 1.8.8 1.5c.3.3.5.6.7 1 .3.3.4.5.5.6l.4.4c.1.1.3.2.5.4.1.1.4.2.6.3.3.2.6.3.9.4s.7.1 1 .1H9c.2 0 .3-.1.4-.1h0v-.8c0-.2.1-.3.1-.3 0-.1.1-.1.1-.2.2-.2.3-.2.3-.2h.1c.1 0 .2 0 .4.1.1.1.3.2.4.4.1.1.2.3.4.5s.3.3.5.4l.1.1c.1.1.2.1.3.1s.3.1.4 0h1.7c.2 0 .3 0 .4-.1l.2-.2v-.2c0-.1-.1-.1-.1-.2z" fill="#d3d3d3"/></svg>